<svg width="49" height="49" viewBox="0 0 49 49" fill="none" xmlns="http://www.w3.org/2000/svg">
<g id="mdi:heart" clip-path="url(#clip0_138_447)">
<path id="Vector" d="M22.5906 38.1185L22.3727 38.3321L22.1331 38.1185C11.7848 28.9113 4.94398 22.823 4.94398 16.6493C4.94398 12.3768 8.21187 9.17247 12.5691 9.17247C15.9241 9.17247 21.2182 12.0656 22.3729 14.9708C23.5275 12.0656 28.8214 9.17247 32.1764 9.17247C36.5336 9.17247 39.8015 12.3768 39.8015 16.6493C39.8015 22.823 32.9607 28.9113 22.5906 38.1185ZM32.1764 4.89999C28.3856 4.89999 24.7474 6.63035 22.3727 9.34337C19.9981 6.63035 16.3598 4.89999 12.5691 4.89999C5.85899 4.89999 0.586792 10.0483 0.586792 16.6493C0.586792 24.7029 7.99401 31.3039 19.2138 41.2802L22.3727 44.1L25.5317 41.2802C36.7514 31.3039 44.1586 24.7029 44.1586 16.6493C44.1586 10.0483 38.8865 4.89999 32.1764 4.89999Z" fill="#111111"/>
</g>
<defs>
<clipPath id="clip0_138_447">
<rect width="48.4132" height="49" fill="white" transform="translate(0.586792)"/>
</clipPath>
</defs>
</svg>
