<svg width="45" height="47" viewBox="0 0 45 47" fill="none" xmlns="http://www.w3.org/2000/svg">
<path id="Vector" d="M22.5 12.75C23.9643 5.67741 29.4947 2.06608 41.5357 2.00001C41.7282 1.99912 41.9189 2.04486 42.0969 2.13459C42.2749 2.22431 42.4366 2.35625 42.5727 2.5228C42.7088 2.68935 42.8167 2.88721 42.89 3.10499C42.9633 3.32276 43.0007 3.55614 43 3.79168V36.0417C43 36.5168 42.8457 36.9726 42.5711 37.3086C42.2965 37.6446 41.9241 37.8333 41.5357 37.8333C29.8214 37.8333 25.2959 40.7235 22.5 45M22.5 12.75C21.0357 5.67741 15.5053 2.06608 3.4643 2.00001C3.2718 1.99912 3.08106 2.04486 2.90308 2.13459C2.7251 2.22431 2.56339 2.35625 2.42727 2.5228C2.29115 2.68935 2.18332 2.88721 2.10999 3.10499C2.03666 3.32276 1.99928 3.55614 2.00001 3.79168V35.8256C2.00001 36.9319 2.5601 37.8333 3.4643 37.8333C15.1786 37.8333 19.7206 40.7448 22.5 45M22.5 12.75V45" stroke="#F8F8F8" stroke-width="4" stroke-linecap="round" stroke-linejoin="round"/>
</svg>
