<svg width="20" height="20" viewBox="0 0 20 20" fill="none" xmlns="http://www.w3.org/2000/svg">
<g id="ic:outline-watch-later">
<path id="Vector" d="M11.1667 5.33333C7.95837 5.33333 5.33337 7.95833 5.33337 11.1667C5.33337 14.375 7.95837 17 11.1667 17C14.375 17 17 14.375 17 11.1667C17 7.95833 14.375 5.33333 11.1667 5.33333ZM11.1667 15.6058C8.59421 15.6058 6.73337 13.7392 6.73337 11.1667C6.73337 8.59416 8.59421 6.73333 11.1667 6.73333C13.7392 6.73333 15.724 8.59416 15.724 11.1667C15.724 13.7392 13.7392 15.6058 11.1667 15.6058ZM11.4584 8.24999H10.5834V11.75L13.6167 13.6167L14.0834 12.8583L11.4584 11.2833V8.24999Z" fill="black"/>
</g>
</svg>
